<?xml version="1.0" encoding="UTF-8"?>
<!DOCTYPE svg
PUBLIC "-//W3C//DTD SVG 1.1//EN"
       "http://www.w3.org/Graphics/SVG/1.1/DTD/svg11.dtd">
<svg viewBox="43 141 1027 766" width="984px" height="625px" xmlns="http://www.w3.org/2000/svg" version="1.1">
   <line x1="623" y1="565" x2="633" y2="565" style="stroke:#0b0;stroke-width:1;"/>
   <line x1="684" y1="244" x2="694" y2="244" style="stroke:#0b0;stroke-width:1;"/>
   <line x1="633" y1="565" x2="684" y2="244" style="stroke:#0b0;stroke-width:1;"/>
   <line x1="630,5" y1="565" x2="626,96446609407" y2="568,53553390593" style="stroke:#0b0;stroke-width:2;"/>
   <line x1="630,5" y1="565" x2="626,96446609407" y2="561,46446609407" style="stroke:#0b0;stroke-width:2;"/>
   <line x1="689" y1="244" x2="685,46446609407" y2="247,53553390593" style="stroke:#0b0;stroke-width:2;"/>
   <line x1="689" y1="244" x2="685,46446609407" y2="240,46446609407" style="stroke:#0b0;stroke-width:2;"/>
   <line x1="694" y1="364" x2="684" y2="364" style="stroke:#b0b;stroke-width:1;"/>
   <line x1="684" y1="244" x2="694" y2="244" style="stroke:#b0b;stroke-width:1;"/>
   <line x1="684" y1="364" x2="684" y2="244" style="stroke:#b0b;stroke-width:1;"/>
   <line x1="686,5" y1="364" x2="690,03553390593" y2="367,53553390593" style="stroke:#b0b;stroke-width:2;"/>
   <line x1="686,5" y1="364" x2="690,03553390593" y2="360,46446609407" style="stroke:#b0b;stroke-width:2;"/>
   <line x1="689" y1="244" x2="685,46446609407" y2="247,53553390593" style="stroke:#b0b;stroke-width:2;"/>
   <line x1="689" y1="244" x2="685,46446609407" y2="240,46446609407" style="stroke:#b0b;stroke-width:2;"/>
   <line x1="831" y1="344" x2="841" y2="344" style="stroke:#cb0;stroke-width:1;"/>
   <line x1="896" y1="454" x2="906" y2="454" style="stroke:#cb0;stroke-width:1;"/>
   <line x1="841" y1="344" x2="896" y2="454" style="stroke:#cb0;stroke-width:1;"/>
   <line x1="838,5" y1="344" x2="834,96446609407" y2="347,53553390593" style="stroke:#cb0;stroke-width:2;"/>
   <line x1="838,5" y1="344" x2="834,96446609407" y2="340,46446609407" style="stroke:#cb0;stroke-width:2;"/>
   <line x1="901" y1="454" x2="897,46446609407" y2="457,53553390593" style="stroke:#cb0;stroke-width:2;"/>
   <line x1="901" y1="454" x2="897,46446609407" y2="450,46446609407" style="stroke:#cb0;stroke-width:2;"/>
   <line x1="193" y1="382" x2="203" y2="382" style="stroke:#c00;stroke-width:1;"/>
   <line x1="200" y1="186" x2="210" y2="186" style="stroke:#c00;stroke-width:1;"/>
   <line x1="203" y1="382" x2="200" y2="186" style="stroke:#c00;stroke-width:1;"/>
   <line x1="200,5" y1="382" x2="196,96446609407" y2="385,53553390593" style="stroke:#c00;stroke-width:2;"/>
   <line x1="200,5" y1="382" x2="196,96446609407" y2="378,46446609407" style="stroke:#c00;stroke-width:2;"/>
   <line x1="205" y1="186" x2="201,46446609407" y2="189,53553390593" style="stroke:#c00;stroke-width:2;"/>
   <line x1="205" y1="186" x2="201,46446609407" y2="182,46446609407" style="stroke:#c00;stroke-width:2;"/>
   <line x1="193" y1="402" x2="203" y2="402" style="stroke:#cb0;stroke-width:1;"/>
   <line x1="165" y1="568" x2="175" y2="568" style="stroke:#cb0;stroke-width:1;"/>
   <line x1="203" y1="402" x2="165" y2="568" style="stroke:#cb0;stroke-width:1;"/>
   <line x1="200,5" y1="402" x2="196,96446609407" y2="405,53553390593" style="stroke:#cb0;stroke-width:2;"/>
   <line x1="200,5" y1="402" x2="196,96446609407" y2="398,46446609407" style="stroke:#cb0;stroke-width:2;"/>
   <line x1="170" y1="568" x2="166,46446609407" y2="571,53553390593" style="stroke:#cb0;stroke-width:2;"/>
   <line x1="170" y1="568" x2="166,46446609407" y2="564,46446609407" style="stroke:#cb0;stroke-width:2;"/>
   <line x1="343" y1="306" x2="353" y2="306" style="stroke:#b0b;stroke-width:1;"/>
   <line x1="407" y1="345" x2="417" y2="345" style="stroke:#b0b;stroke-width:1;"/>
   <line x1="353" y1="306" x2="407" y2="345" style="stroke:#b0b;stroke-width:1;"/>
   <line x1="350,5" y1="306" x2="346,96446609407" y2="309,53553390593" style="stroke:#b0b;stroke-width:2;"/>
   <line x1="350,5" y1="306" x2="346,96446609407" y2="302,46446609407" style="stroke:#b0b;stroke-width:2;"/>
   <line x1="412" y1="345" x2="408,46446609407" y2="348,53553390593" style="stroke:#b0b;stroke-width:2;"/>
   <line x1="412" y1="345" x2="408,46446609407" y2="341,46446609407" style="stroke:#b0b;stroke-width:2;"/>
   <line x1="446" y1="204" x2="436" y2="204" style="stroke:#c00;stroke-width:1;"/>
   <line x1="407" y1="345" x2="417" y2="345" style="stroke:#c00;stroke-width:1;"/>
   <line x1="436" y1="204" x2="407" y2="345" style="stroke:#c00;stroke-width:1;"/>
   <line x1="438,5" y1="204" x2="442,03553390593" y2="207,53553390593" style="stroke:#c00;stroke-width:2;"/>
   <line x1="438,5" y1="204" x2="442,03553390593" y2="200,46446609407" style="stroke:#c00;stroke-width:2;"/>
   <line x1="412" y1="345" x2="408,46446609407" y2="348,53553390593" style="stroke:#c00;stroke-width:2;"/>
   <line x1="412" y1="345" x2="408,46446609407" y2="341,46446609407" style="stroke:#c00;stroke-width:2;"/>
   <line x1="319" y1="608" x2="329" y2="608" style="stroke:#333;stroke-width:1;"/>
   <line x1="431" y1="681" x2="441" y2="681" style="stroke:#333;stroke-width:1;"/>
   <line x1="329" y1="608" x2="431" y2="681" style="stroke:#333;stroke-width:1;"/>
   <line x1="326,5" y1="608" x2="322,96446609407" y2="611,53553390593" style="stroke:#333;stroke-width:2;"/>
   <line x1="326,5" y1="608" x2="322,96446609407" y2="604,46446609407" style="stroke:#333;stroke-width:2;"/>
   <line x1="436" y1="681" x2="432,46446609407" y2="684,53553390593" style="stroke:#333;stroke-width:2;"/>
   <line x1="436" y1="681" x2="432,46446609407" y2="677,46446609407" style="stroke:#333;stroke-width:2;"/>
   <rect width="206" height="20" x="417" y="315" style="fill:#007;stroke:black;"/>
   <text width="206" height="20" x="422" y="329" style="fill:#fff;" font-family="Arial" font-size="16px"> customers</text>
   <rect width="206" height="20" x="417" y="335" style="fill:#aea;stroke:black;"/>
   <text width="206" height="20" x="422" y="349" style="fill:black;" font-family="Arial" font-size="16px">customerNumber</text>
   <rect width="206" height="20" x="417" y="355" style="fill:none;stroke:black;"/>
   <text width="206" height="20" x="422" y="369" style="fill:black;" font-family="Arial" font-size="16px">customerName</text>
   <rect width="206" height="20" x="417" y="375" style="fill:none;stroke:black;"/>
   <text width="206" height="20" x="422" y="389" style="fill:black;" font-family="Arial" font-size="16px">contactLastName</text>
   <rect width="206" height="20" x="417" y="395" style="fill:none;stroke:black;"/>
   <text width="206" height="20" x="422" y="409" style="fill:black;" font-family="Arial" font-size="16px">contactFirstName</text>
   <rect width="206" height="20" x="417" y="415" style="fill:none;stroke:black;"/>
   <text width="206" height="20" x="422" y="429" style="fill:black;" font-family="Arial" font-size="16px">phone</text>
   <rect width="206" height="20" x="417" y="435" style="fill:none;stroke:black;"/>
   <text width="206" height="20" x="422" y="449" style="fill:black;" font-family="Arial" font-size="16px">addressLine1</text>
   <rect width="206" height="20" x="417" y="455" style="fill:none;stroke:black;"/>
   <text width="206" height="20" x="422" y="469" style="fill:black;" font-family="Arial" font-size="16px">addressLine2</text>
   <rect width="206" height="20" x="417" y="475" style="fill:none;stroke:black;"/>
   <text width="206" height="20" x="422" y="489" style="fill:black;" font-family="Arial" font-size="16px">city</text>
   <rect width="206" height="20" x="417" y="495" style="fill:none;stroke:black;"/>
   <text width="206" height="20" x="422" y="509" style="fill:black;" font-family="Arial" font-size="16px">state</text>
   <rect width="206" height="20" x="417" y="515" style="fill:none;stroke:black;"/>
   <text width="206" height="20" x="422" y="529" style="fill:black;" font-family="Arial" font-size="16px">postalCode</text>
   <rect width="206" height="20" x="417" y="535" style="fill:none;stroke:black;"/>
   <text width="206" height="20" x="422" y="549" style="fill:black;" font-family="Arial" font-size="16px">country</text>
   <rect width="206" height="20" x="417" y="555" style="fill:none;stroke:black;"/>
   <text width="206" height="20" x="422" y="569" style="fill:black;" font-family="Arial" font-size="16px">salesRepEmployeeNumber</text>
   <rect width="206" height="20" x="417" y="575" style="fill:none;stroke:black;"/>
   <text width="206" height="20" x="422" y="589" style="fill:black;" font-family="Arial" font-size="16px">creditLimit</text>
   <rect width="137" height="20" x="694" y="214" style="fill:#007;stroke:black;"/>
   <text width="137" height="20" x="699" y="228" style="fill:#fff;" font-family="Arial" font-size="16px"> employees</text>
   <rect width="137" height="20" x="694" y="234" style="fill:#aea;stroke:black;"/>
   <text width="137" height="20" x="699" y="248" style="fill:black;" font-family="Arial" font-size="16px">employeeNumber</text>
   <rect width="137" height="20" x="694" y="254" style="fill:none;stroke:black;"/>
   <text width="137" height="20" x="699" y="268" style="fill:black;" font-family="Arial" font-size="16px">lastName</text>
   <rect width="137" height="20" x="694" y="274" style="fill:none;stroke:black;"/>
   <text width="137" height="20" x="699" y="288" style="fill:black;" font-family="Arial" font-size="16px">firstName</text>
   <rect width="137" height="20" x="694" y="294" style="fill:none;stroke:black;"/>
   <text width="137" height="20" x="699" y="308" style="fill:black;" font-family="Arial" font-size="16px">extension</text>
   <rect width="137" height="20" x="694" y="314" style="fill:none;stroke:black;"/>
   <text width="137" height="20" x="699" y="328" style="fill:black;" font-family="Arial" font-size="16px">email</text>
   <rect width="137" height="20" x="694" y="334" style="fill:none;stroke:black;"/>
   <text width="137" height="20" x="699" y="348" style="fill:black;" font-family="Arial" font-size="16px">officeCode</text>
   <rect width="137" height="20" x="694" y="354" style="fill:none;stroke:black;"/>
   <text width="137" height="20" x="699" y="368" style="fill:black;" font-family="Arial" font-size="16px">reportsTo</text>
   <rect width="137" height="20" x="694" y="374" style="fill:none;stroke:black;"/>
   <text width="137" height="20" x="699" y="388" style="fill:black;" font-family="Arial" font-size="16px">jobTitle</text>
   <rect width="106" height="20" x="906" y="424" style="fill:#007;stroke:black;"/>
   <text width="106" height="20" x="911" y="438" style="fill:#fff;" font-family="Arial" font-size="16px"> offices</text>
   <rect width="106" height="20" x="906" y="444" style="fill:none;stroke:black;"/>
   <text width="106" height="20" x="911" y="458" style="fill:black;" font-family="Arial" font-size="16px">officeCode</text>
   <rect width="106" height="20" x="906" y="464" style="fill:none;stroke:black;"/>
   <text width="106" height="20" x="911" y="478" style="fill:black;" font-family="Arial" font-size="16px">city</text>
   <rect width="106" height="20" x="906" y="484" style="fill:none;stroke:black;"/>
   <text width="106" height="20" x="911" y="498" style="fill:black;" font-family="Arial" font-size="16px">phone</text>
   <rect width="106" height="20" x="906" y="504" style="fill:none;stroke:black;"/>
   <text width="106" height="20" x="911" y="518" style="fill:black;" font-family="Arial" font-size="16px">addressLine1</text>
   <rect width="106" height="20" x="906" y="524" style="fill:none;stroke:black;"/>
   <text width="106" height="20" x="911" y="538" style="fill:black;" font-family="Arial" font-size="16px">addressLine2</text>
   <rect width="106" height="20" x="906" y="544" style="fill:none;stroke:black;"/>
   <text width="106" height="20" x="911" y="558" style="fill:black;" font-family="Arial" font-size="16px">state</text>
   <rect width="106" height="20" x="906" y="564" style="fill:none;stroke:black;"/>
   <text width="106" height="20" x="911" y="578" style="fill:black;" font-family="Arial" font-size="16px">country</text>
   <rect width="106" height="20" x="906" y="584" style="fill:none;stroke:black;"/>
   <text width="106" height="20" x="911" y="598" style="fill:black;" font-family="Arial" font-size="16px">postalCode</text>
   <rect width="106" height="20" x="906" y="604" style="fill:none;stroke:black;"/>
   <text width="106" height="20" x="911" y="618" style="fill:black;" font-family="Arial" font-size="16px">territory</text>
   <rect width="135" height="20" x="58" y="352" style="fill:#007;stroke:black;"/>
   <text width="135" height="20" x="63" y="366" style="fill:#fff;" font-family="Arial" font-size="16px"> orderdetails</text>
   <rect width="135" height="20" x="58" y="372" style="fill:#aea;stroke:black;"/>
   <text width="135" height="20" x="63" y="386" style="fill:black;" font-family="Arial" font-size="16px">orderNumber</text>
   <rect width="135" height="20" x="58" y="392" style="fill:none;stroke:black;"/>
   <text width="135" height="20" x="63" y="406" style="fill:black;" font-family="Arial" font-size="16px">productCode</text>
   <rect width="135" height="20" x="58" y="412" style="fill:none;stroke:black;"/>
   <text width="135" height="20" x="63" y="426" style="fill:black;" font-family="Arial" font-size="16px">quantityOrdered</text>
   <rect width="135" height="20" x="58" y="432" style="fill:none;stroke:black;"/>
   <text width="135" height="20" x="63" y="446" style="fill:black;" font-family="Arial" font-size="16px">priceEach</text>
   <rect width="135" height="20" x="58" y="452" style="fill:none;stroke:black;"/>
   <text width="135" height="20" x="63" y="466" style="fill:black;" font-family="Arial" font-size="16px">orderLineNumber</text>
   <rect width="133" height="20" x="210" y="156" style="fill:#007;stroke:black;"/>
   <text width="133" height="20" x="215" y="170" style="fill:#fff;" font-family="Arial" font-size="16px"> orders</text>
   <rect width="133" height="20" x="210" y="176" style="fill:#aea;stroke:black;"/>
   <text width="133" height="20" x="215" y="190" style="fill:black;" font-family="Arial" font-size="16px">orderNumber</text>
   <rect width="133" height="20" x="210" y="196" style="fill:none;stroke:black;"/>
   <text width="133" height="20" x="215" y="210" style="fill:black;" font-family="Arial" font-size="16px">orderDate</text>
   <rect width="133" height="20" x="210" y="216" style="fill:none;stroke:black;"/>
   <text width="133" height="20" x="215" y="230" style="fill:black;" font-family="Arial" font-size="16px">requiredDate</text>
   <rect width="133" height="20" x="210" y="236" style="fill:none;stroke:black;"/>
   <text width="133" height="20" x="215" y="250" style="fill:black;" font-family="Arial" font-size="16px">shippedDate</text>
   <rect width="133" height="20" x="210" y="256" style="fill:none;stroke:black;"/>
   <text width="133" height="20" x="215" y="270" style="fill:black;" font-family="Arial" font-size="16px">status</text>
   <rect width="133" height="20" x="210" y="276" style="fill:none;stroke:black;"/>
   <text width="133" height="20" x="215" y="290" style="fill:black;" font-family="Arial" font-size="16px">comments</text>
   <rect width="133" height="20" x="210" y="296" style="fill:none;stroke:black;"/>
   <text width="133" height="20" x="215" y="310" style="fill:black;" font-family="Arial" font-size="16px">customerNumber</text>
   <rect width="133" height="20" x="446" y="174" style="fill:#007;stroke:black;"/>
   <text width="133" height="20" x="451" y="188" style="fill:#fff;" font-family="Arial" font-size="16px"> payments</text>
   <rect width="133" height="20" x="446" y="194" style="fill:#aea;stroke:black;"/>
   <text width="133" height="20" x="451" y="208" style="fill:black;" font-family="Arial" font-size="16px">customerNumber</text>
   <rect width="133" height="20" x="446" y="214" style="fill:none;stroke:black;"/>
   <text width="133" height="20" x="451" y="228" style="fill:black;" font-family="Arial" font-size="16px">checkNumber</text>
   <rect width="133" height="20" x="446" y="234" style="fill:none;stroke:black;"/>
   <text width="133" height="20" x="451" y="248" style="fill:black;" font-family="Arial" font-size="16px">paymentDate</text>
   <rect width="133" height="20" x="446" y="254" style="fill:none;stroke:black;"/>
   <text width="133" height="20" x="451" y="268" style="fill:black;" font-family="Arial" font-size="16px">amount</text>
   <rect width="121" height="20" x="441" y="651" style="fill:#007;stroke:black;"/>
   <text width="121" height="20" x="446" y="665" style="fill:#fff;" font-family="Arial" font-size="16px"> productlines</text>
   <rect width="121" height="20" x="441" y="671" style="fill:none;stroke:black;"/>
   <text width="121" height="20" x="446" y="685" style="fill:black;" font-family="Arial" font-size="16px">productLine</text>
   <rect width="121" height="20" x="441" y="691" style="fill:none;stroke:black;"/>
   <text width="121" height="20" x="446" y="705" style="fill:black;" font-family="Arial" font-size="16px">textDescription</text>
   <rect width="121" height="20" x="441" y="711" style="fill:none;stroke:black;"/>
   <text width="121" height="20" x="446" y="725" style="fill:black;" font-family="Arial" font-size="16px">htmlDescription</text>
   <rect width="121" height="20" x="441" y="731" style="fill:none;stroke:black;"/>
   <text width="121" height="20" x="446" y="745" style="fill:black;" font-family="Arial" font-size="16px">image</text>
   <rect width="144" height="20" x="175" y="538" style="fill:#007;stroke:black;"/>
   <text width="144" height="20" x="180" y="552" style="fill:#fff;" font-family="Arial" font-size="16px"> products</text>
   <rect width="144" height="20" x="175" y="558" style="fill:none;stroke:black;"/>
   <text width="144" height="20" x="180" y="572" style="fill:black;" font-family="Arial" font-size="16px">productCode</text>
   <rect width="144" height="20" x="175" y="578" style="fill:none;stroke:black;"/>
   <text width="144" height="20" x="180" y="592" style="fill:black;" font-family="Arial" font-size="16px">productName</text>
   <rect width="144" height="20" x="175" y="598" style="fill:none;stroke:black;"/>
   <text width="144" height="20" x="180" y="612" style="fill:black;" font-family="Arial" font-size="16px">productLine</text>
   <rect width="144" height="20" x="175" y="618" style="fill:none;stroke:black;"/>
   <text width="144" height="20" x="180" y="632" style="fill:black;" font-family="Arial" font-size="16px">productScale</text>
   <rect width="144" height="20" x="175" y="638" style="fill:none;stroke:black;"/>
   <text width="144" height="20" x="180" y="652" style="fill:black;" font-family="Arial" font-size="16px">productVendor</text>
   <rect width="144" height="20" x="175" y="658" style="fill:none;stroke:black;"/>
   <text width="144" height="20" x="180" y="672" style="fill:black;" font-family="Arial" font-size="16px">productDescription</text>
   <rect width="144" height="20" x="175" y="678" style="fill:none;stroke:black;"/>
   <text width="144" height="20" x="180" y="692" style="fill:black;" font-family="Arial" font-size="16px">quantityInStock</text>
   <rect width="144" height="20" x="175" y="698" style="fill:none;stroke:black;"/>
   <text width="144" height="20" x="180" y="712" style="fill:black;" font-family="Arial" font-size="16px">buyPrice</text>
   <rect width="144" height="20" x="175" y="718" style="fill:none;stroke:black;"/>
   <text width="144" height="20" x="180" y="732" style="fill:black;" font-family="Arial" font-size="16px">MSRP</text>
</svg>
